<?xml version="1.0" encoding="UTF-8" standalone="no"?>
<!-- Generator: Adobe Illustrator 23.0.6, SVG Export Plug-In . SVG Version: 6.00 Build 0)  -->

<svg
   xmlns:dc="http://purl.org/dc/elements/1.1/"
   xmlns:cc="http://creativecommons.org/ns#"
   xmlns:rdf="http://www.w3.org/1999/02/22-rdf-syntax-ns#"
   xmlns:svg="http://www.w3.org/2000/svg"
   xmlns="http://www.w3.org/2000/svg"
   xmlns:sodipodi="http://sodipodi.sourceforge.net/DTD/sodipodi-0.dtd"
   xmlns:inkscape="http://www.inkscape.org/namespaces/inkscape"
   version="1.1"
   id="Layer_1"
   x="0px"
   y="0px"
   viewBox="0 0 75 75"
   style="enable-background:new 0 0 75 75;"
   xml:space="preserve"
   inkscape:version="0.91 r13725"
   sodipodi:docname="callendar.svg"><metadata
     id="metadata11"><rdf:RDF><cc:Work
         rdf:about=""><dc:format>image/svg+xml</dc:format><dc:type
           rdf:resource="http://purl.org/dc/dcmitype/StillImage" /></cc:Work></rdf:RDF></metadata><defs
     id="defs9" /><sodipodi:namedview
     pagecolor="#ffffff"
     bordercolor="#666666"
     borderopacity="1"
     objecttolerance="10"
     gridtolerance="10"
     guidetolerance="10"
     inkscape:pageopacity="0"
     inkscape:pageshadow="2"
     inkscape:window-width="1920"
     inkscape:window-height="1056"
     id="namedview7"
     showgrid="false"
     inkscape:zoom="3.1466667"
     inkscape:cx="37.5"
     inkscape:cy="37.5"
     inkscape:window-x="0"
     inkscape:window-y="24"
     inkscape:window-maximized="1"
     inkscape:current-layer="Layer_1" /><style
     type="text/css"
     id="style3">
	.st0{fill:#045d99;}
</style><path
     class="st0"
     d="m 36.612372,40.420332 c -0.0084,0 -0.0085,0.01314 0,0.01314 0.0085,0 0.0085,-0.01314 0,-0.01314 z m 6.116975,6.648239 c -0.338242,-1.231174 -0.72299,-2.540924 -1.552388,-3.541215 -0.793872,-0.957504 -2.177787,-1.501734 -3.311197,-0.773731 -1.654648,1.062702 -1.095895,3.230375 -0.926731,4.834541 0.0066,0.06276 0.03319,0.110472 0.0663,0.151185 -0.02636,0.04132 -0.04443,0.09033 -0.03864,0.155248 0.135799,1.536137 0.354839,3.036142 0.790327,4.518254 0.396072,1.348216 0.739328,2.709483 1.011789,4.088212 0.498935,2.524241 0.882213,5.05678 1.527147,7.551804 0.09007,0.348529 0.630153,0.200802 0.539736,-0.14885 -0.631536,-2.443246 -1.015505,-4.921674 -1.496461,-7.39526 -0.250073,-1.286324 -0.55737,-2.559855 -0.918519,-3.819468 -0.455456,-1.588867 -0.748576,-3.146874 -0.894315,-4.794779 -0.0055,-0.06293 -0.03129,-0.110817 -0.06371,-0.151617 0.02567,-0.04123 0.04287,-0.08998 0.03605,-0.154815 -0.14816,-1.405266 -0.823089,-3.862516 0.986893,-4.523182 1.269987,-0.463581 2.312115,0.697922 2.829722,1.701239 0.501356,0.971939 0.760938,2.046311 1.049044,3.094577 0.482858,1.756907 0.983177,3.509146 1.475024,5.263632 0.09707,0.346368 0.637327,0.199246 0.539736,-0.14885 -0.551837,-1.968255 -1.108256,-3.935558 -1.649807,-5.906925 z m 17.735208,9.797879 c -0.09111,-0.974446 -0.258457,-2.063425 -0.872705,-2.860495 -0.611222,-0.79318 -1.66649,-1.079817 -2.57308,-1.389015 -0.508963,-0.173573 -1.031583,-0.340922 -1.488941,-0.630499 -0.633523,-0.401084 -1.199191,-0.884288 -1.866427,-1.239646 -1.3005,-0.692649 -2.722709,-1.074025 -4.185458,-1.213195 -1.350981,-0.128537 -2.912359,-0.19233 -4.229283,0.175043 -0.196393,0.05472 -0.224054,0.388464 -8.7e-5,0.425893 1.143265,0.191034 2.346433,0.02887 3.504219,0.08791 1.301538,0.06647 2.599617,0.307038 3.800451,0.826546 0.640007,0.27687 1.249068,0.628683 1.818021,1.031151 0.494614,0.349825 0.918519,0.688673 1.480383,0.926817 0.935029,0.396331 2.159375,0.557888 2.929043,1.259787 0.692649,0.631622 0.828879,1.798398 0.903564,2.676635 0.08635,1.015333 0.05308,2.039482 -0.03025,3.053777 -0.198295,2.414202 -0.826114,4.72407 -1.525592,7.032987 -0.771742,2.547407 -1.479864,5.153939 -1.542793,7.832045 -0.01219,0.519335 0.750737,0.502134 0.795946,0 0.126635,-1.405958 0.279203,-2.793677 0.587537,-4.173443 0.259668,-1.162109 0.596873,-2.303904 0.93961,-3.443538 0.705702,-2.346951 1.32358,-4.693815 1.530606,-7.144754 0.09059,-1.073507 0.125598,-2.159894 0.02524,-3.234006 z M 41.03606,70.706123 c -0.321127,-0.517262 -0.646576,-1.032534 -0.954823,-1.557662 -0.669051,-1.13972 -1.285373,-2.316264 -1.853894,-3.509059 -0.58771,-1.233163 -1.128051,-2.373402 -0.806232,-3.770111 0.168732,-0.732239 0.475683,-1.411576 0.79439,-2.08832 0.06353,-0.134934 0.437303,-0.790673 0.100703,-0.895785 -0.46894,-0.146431 -0.763963,0.721261 -0.906676,1.014814 -0.319053,0.656517 -0.603875,1.347005 -0.738636,2.067229 -0.252061,1.348042 0.186453,2.456557 0.731116,3.662837 0.577856,1.279668 1.232557,2.521302 1.909647,3.750662 0.324066,0.588401 0.643378,1.17905 0.991388,1.753795 0.308507,0.509395 0.615545,1.078261 1.109553,1.431198 0.221375,0.158186 0.483376,-0.102086 0.430388,-0.330895 -0.12871,-0.557024 -0.510086,-1.050514 -0.806924,-1.528703 z M 0.33727881,39.999106 c -0.0048,-5.230353 0.006,-10.460706 -0.0045,-15.691059 -0.0054,-2.766101 0.04711,-5.542576 -0.129402,-8.303405 3.12362099,0.3315 6.28553499,0.3927 9.42281299,0.492279 4.0692822,0.129229 8.1396012,0.223622 12.2101792,0.301246 7.756841,0.147814 15.515325,0.2448 23.273636,0.257507 1.431803,0.0023 2.863607,0.0012 4.295324,-0.01219 0.527375,-0.0049 1.054663,-0.01132 1.581865,-0.0223 0.206766,-0.0043 0.426757,0.01055 0.630844,-0.02533 0.07832,-0.01383 0.215928,-0.05947 0.314817,-0.09422 -0.262867,0.903824 -0.172017,1.853288 -0.171066,2.788144 10e-4,1.010319 0.0058,2.020637 0.0067,3.030956 0.002,2.13085 -0.009,4.261872 -0.02602,6.392635 -0.03423,4.277171 -0.106668,8.55391 -0.174005,12.83065 -0.03622,2.300532 -0.130785,4.611005 -0.0861,6.911451 0.007,0.360371 0.543971,0.358729 0.55858,0 0.168991,-4.143707 0.130352,-8.308246 0.191985,-12.455238 0.06353,-4.275529 0.12214,-8.551836 0.09802,-12.827884 -0.0065,-1.156836 -0.01288,-2.313931 -0.04037,-3.470421 -0.02541,-1.067974 0.06604,-2.206744 -0.289144,-3.224842 0.02922,-0.01055 0.04763,-0.01746 0.04789,-0.01746 0.271596,-0.01227 0.273066,-0.436094 0,-0.423733 0.09491,-0.0043 -0.08826,-0.02291 -0.130699,-0.03207 -0.06958,-0.01513 -0.139688,-0.03458 -0.210051,-0.04607 -0.195442,-0.03198 -0.379647,-0.02559 -0.577769,-0.02057 -0.447676,0.01115 -0.895439,0.0185 -1.343202,0.02464 -1.199969,0.01634 -2.400112,0.0223 -3.600168,0.02524 -3.451058,0.0086 -6.902116,-0.01392 -10.353001,-0.04581 -8.270299,-0.07633 -16.540944,-0.210051 -24.808476,-0.43981 -3.6266192,-0.100704 -7.2558322,-0.287675 -10.88348819,-0.326314 -0.254654,-0.0028 -0.262607,0.327264 -0.05947,0.405666 -0.154297,2.406595 -0.120758,4.821921 -0.127673,7.23327 -0.0073,2.589331 -0.0045,5.178748 -0.0052,7.768079 -0.0013,5.230353 -0.0041,10.460792 -0.01029,15.691145 -0.0034,2.83828 -0.08929,5.686414 0.06777,8.521064 0.0096,0.173313 0.260013,0.173659 0.269608,0 0.136922,-2.47255 0.07192,-4.951669 0.06898,-7.427157 -0.0029,-2.589331 -0.0066,-5.178748 -0.009,-7.768079 z M 36.711087,54.970892 C 32.053749,54.722981 27.368232,54.855321 22.705449,54.855321 l -14.7094392,0 c -2.483268,0 -5.042517,-0.150666 -7.50313799,0.231229 -0.106668,0.01651 -0.106754,0.1989 0,0.21541 2.16309199,0.335736 4.39741099,0.231229 6.58055699,0.231229 l 21.9580952,0 c 2.56167,0 5.120832,0.02057 7.679563,-0.115571 0.287329,-0.01513 0.287848,-0.431339 0,-0.446726 z M 48.618378,37.131264 c 0.443873,0.0055 0.444046,-0.683746 0,-0.689538 -2.072329,-0.02714 -4.144658,-0.04737 -6.217073,-0.06535 0.01772,-1.238176 0.05454,-2.476093 0.09569,-3.713751 0.03924,-1.180952 0.07935,-2.361646 0.09975,-3.542944 0.286551,0.01106 0.573102,0.02049 0.859566,0.03216 1.631136,0.06673 3.356924,0.332796 4.98028,0.153864 0.256643,-0.02827 0.357778,-0.414742 0.06552,-0.484241 -1.360144,-0.323634 -2.838453,-0.265891 -4.230839,-0.323806 -0.555554,-0.02308 -1.111195,-0.04192 -1.666836,-0.06086 0.0016,-0.156976 0.0046,-0.313952 0.0053,-0.470928 0.0065,-1.486262 0.05446,-3.055679 -0.208581,-4.523528 -0.03233,-0.180315 -0.298307,-0.12629 -0.306433,0.04149 -0.0752,1.54893 0.0287,3.117051 -0.0098,4.669958 -0.0022,0.08791 -0.0064,0.17582 -0.0088,0.26373 -0.748317,-0.02386 -1.496807,-0.04443 -2.245297,-0.0625 -2.909334,-0.07002 -5.819446,-0.100444 -8.729558,-0.113496 -0.244541,-0.0011 -0.489082,-8.65e-4 -0.733709,-0.0017 0.02541,-1.513231 0.03968,-3.030005 -0.06889,-4.533295 -0.0153,-0.212039 -0.307383,-0.209014 -0.327437,0 -0.143924,1.500869 -0.165621,3.01799 -0.17608,4.531912 -3.76285,-0.01158 -7.525699,-0.0048 -11.288549,-0.01072 -0.03146,-0.82862 -0.0631,-1.657154 -0.09474,-2.485774 -0.02031,-0.532821 -0.04555,-1.065123 -0.07399,-1.597511 -0.02853,-0.534462 0.0082,-1.119752 -0.177722,-1.62569 -0.03501,-0.09508 -0.1734,-0.105717 -0.204259,0 -0.140466,0.48087 -0.07702,1.005305 -0.06915,1.502772 0.009,0.573706 0.02057,1.146895 0.03838,1.720429 0.02567,0.828447 0.05135,1.656895 0.0771,2.485342 -1.570454,-0.003 -3.140822,-0.0086 -4.711277,-0.02023 -1.764686,-0.01297 -3.5358562,-0.05869 -5.3062482,-0.07883 -2.59e-4,-1.028385 0.001,-2.05677 -0.006,-3.085154 -0.0079,-1.147155 0.03544,-2.317994 -0.168128,-3.451663 -0.01029,-0.05697 -0.104938,-0.05705 -0.115225,0 -0.203568,1.133496 -0.160261,2.304768 -0.168127,3.451663 -0.007,1.026829 -0.0058,2.053657 -0.0061,3.080486 -1.341041,-0.01132 -2.681304,-0.0054 -4.017504,0.04616 -0.05083,0.0019 -0.04806,0.07105 0,0.07702 1.328507,0.165275 2.671363,0.260446 4.016813,0.322424 l -0.0034,7.02659 c -8.6e-5,0.199851 -0.0018,0.400048 -0.0025,0.600072 -1.400426,0.0033 -2.80016,0.02939 -4.190645,0.117991 -0.102346,0.0065 -0.100876,0.148938 0,0.157927 1.387114,0.123956 2.787972,0.175043 4.188656,0.204 -0.01279,2.580687 -0.05921,5.169326 -0.0523,7.754767 -0.263644,0.0015 -0.527375,0.0014 -0.791019,0.0057 -0.985856,0.01599 -2.105868,-0.09059 -3.037093,0.277216 -0.03363,0.01331 -0.03561,0.05792 0,0.07062 0.80433,0.287069 1.708413,0.215928 2.551729,0.231315 0.427017,0.0078 0.854034,0.01219 1.280964,0.01867 0.0099,1.601054 0.04149,3.200639 0.120412,4.795643 0.01063,0.215496 0.324412,0.215842 0.335131,0 0.07875,-1.592238 0.110384,-3.18897 0.120325,-4.787258 0.259409,0.0034 0.518731,0.009 0.778226,0.01132 1.9004842,0.01703 3.8009692,0.02896 5.7015412,0.03881 1.352278,0.007 2.704642,0.01478 4.05692,0.0223 0.01591,0.465051 0.0319,0.930102 0.0478,1.395066 0.03829,1.118543 0.0089,2.264487 0.180834,3.371706 0.03726,0.239786 0.379215,0.157149 0.397281,-0.05377 0.09699,-1.13514 -0.0204,-2.302953 -0.06008,-3.440858 -0.01478,-0.423128 -0.02948,-0.846168 -0.04426,-1.269295 2.450335,0.01357 4.900669,0.02714 7.351089,0.04037 1.032707,0.0056 2.065414,0.0098 3.098121,0.01383 -0.0217,1.630271 -0.03786,3.260456 -0.03337,4.889949 0.0011,0.397195 0.605862,0.396331 0.616322,0 0.04305,-1.628283 0.06543,-3.257603 0.08238,-4.887183 0.540859,0.0021 1.081718,0.0041 1.622578,0.0061 0.605776,0.0022 1.280014,0.09578 1.860117,-0.09794 0.220424,-0.07365 0.218003,-0.370917 0,-0.445688 -0.480264,-0.164756 -1.004787,-0.108915 -1.507353,-0.111422 -0.577856,-0.0029 -1.155798,-0.0058 -1.733654,-0.0088 -0.07831,-4.32e-4 -0.156544,-7.78e-4 -0.234859,-0.0012 0.02291,-2.523031 0.03129,-5.046494 0.05532,-7.568142 3.2589,0.03129 6.5178,0.06276 9.776614,0.09604 0.578029,0.0059 1.156058,0.01124 1.734087,0.01677 -0.0042,0.286292 -0.0091,0.572584 -0.01081,0.858962 -0.0108,1.819922 -0.127413,3.786534 0.294677,5.562371 0.05204,0.218695 0.346713,0.147641 0.36694,-0.0497 0.101309,-0.986029 0.01331,-1.962377 -0.01443,-2.9529 -0.02593,-0.925089 -0.0344,-1.850609 -0.03293,-2.776043 3.46e-4,-0.212298 0.0034,-0.424597 0.0051,-0.636809 2.074663,0.01962 4.149153,0.03898 6.22347,0.065 z M 7.9889218,35.595904 c -0.0011,-2.335281 -0.0022,-4.670563 -0.0034,-7.005758 1.382619,0.05601 2.7668802,0.08039 4.1405952,0.10831 1.964192,0.03994 3.928643,0.06034 5.89318,0.07607 0.0043,0.136144 0.0083,0.272288 0.01271,0.408432 0.07486,2.335023 0.159483,4.669699 0.239527,7.004548 l 0.0017,0.05014 c -2.127737,-0.008 -4.255475,-0.01711 -6.383212,-0.02109 -1.294882,-0.0024 -2.5966792,-0.0191 -3.8987352,-0.02049 -6.05e-4,-0.200024 -0.0023,-0.400307 -0.0024,-0.600158 z m 1.42169,8.835103 c -0.45511,-0.0022 -0.910048,-0.0045 -1.364985,-0.0046 0.0068,-2.580773 -0.03933,-5.164658 -0.05221,-7.740763 0.930015,0.01616 1.859166,0.02464 2.7835632,0.03985 2.505483,0.04115 5.010966,0.07278 7.516536,0.101049 0.07131,2.080887 0.142714,4.161687 0.214027,6.242574 0.01591,0.465051 0.0319,0.930102 0.0478,1.395239 -3.048244,-0.01063 -6.096489,-0.01893 -9.1447332,-0.03337 z m 20.1463852,0.08125 c -0.755751,-0.0041 -1.511416,-0.0085 -2.267167,-0.01176 -1.972403,-0.0086 -3.94472,-0.01729 -5.917124,-0.0261 -0.765432,-0.0035 -1.530864,-0.0054 -2.296297,-0.0082 -0.01763,-0.506629 -0.03535,-1.013344 -0.05299,-1.519973 -0.07105,-2.037925 -0.142108,-4.075765 -0.213162,-6.11369 0.465569,0.0051 0.931139,0.01132 1.396795,0.01608 3.157937,0.03276 6.315875,0.06276 9.473812,0.0931 -0.03561,2.522599 -0.08705,5.04658 -0.123869,7.570562 z M 29.77647,30.35699 c -0.03138,1.978195 -0.05843,3.956476 -0.0861,5.934758 -3.633534,-0.02109 -7.267155,-0.03838 -10.900776,-0.05238 -0.002,-0.05826 -0.0041,-0.116522 -0.0061,-0.174783 -0.07996,-2.293877 -0.155074,-4.588012 -0.240478,-6.881716 -0.005,-0.134848 -0.01037,-0.269781 -0.01539,-0.404629 0.798539,0.0059 1.597078,0.01331 2.395617,0.01781 2.955839,0.01686 5.911938,0.02662 8.867777,0.05152 -0.0032,0.504035 -0.0067,1.007466 -0.01461,1.509427 z m 12.134024,2.503149 c -0.04642,1.170061 -0.08731,2.340382 -0.112027,3.511048 -3.354244,-0.02792 -6.708575,-0.04841 -10.062906,-0.06855 -0.484586,-0.0029 -0.969173,-0.005 -1.453759,-0.0078 0.01919,-1.979319 0.0389,-3.958551 0.05437,-5.937957 0.0039,-0.4998 0.01245,-1.000983 0.02118,-1.502771 2.766621,0.02524 5.533068,0.06328 8.298997,0.135625 1.132633,0.02965 2.264919,0.06777 3.397119,0.109521 -0.04071,1.253908 -0.09318,2.507471 -0.142973,3.760861 z M 10.548085,15.077825 c -0.01279,0.276437 0.386995,0.2601 0.419929,0 0.115485,-0.914543 -0.08428,-1.828048 0.02075,-2.742245 0.05766,-0.502047 0.156803,-1.062961 0.709591,-1.234113 0.436353,-0.135107 0.970643,-0.051 1.420221,-0.04711 0.31499,0.0027 1.313207,-0.146517 1.534235,0.134588 0.09128,0.116176 0.0217,0.549157 0.02369,0.680461 0.0035,0.2295 0.007,0.459 0.01063,0.688586 0.01323,0.847551 -0.06154,1.753968 0.09405,2.588121 0.0478,0.256383 0.487785,0.265805 0.527461,0 0.09344,-0.625917 0.02974,-1.277939 0.01616,-1.909388 -0.01366,-0.634302 0.005,-1.277767 -0.04244,-1.91034 -0.08878,-1.183805 -1.421431,-0.879361 -2.286961,-0.86942 -0.935721,0.01063 -1.946385,-0.04832 -2.334936,0.98067 -0.436007,1.154588 -0.05722,2.448346 -0.112373,3.64019 z m 28.674191,-1.475283 c -0.03847,0.707084 -0.08125,1.412959 0.05255,2.112696 0.04132,0.215756 0.40195,0.168992 0.385958,-0.05221 -0.07244,-1.001847 0.07391,-1.976725 0.08342,-2.976153 0.0041,-0.428054 -0.2856,-1.225037 0.254222,-1.412268 0.166745,-0.05783 0.435921,0.0094 0.618397,0.01253 0.276437,0.0046 0.553048,0.0053 0.829485,0.008 0.443095,0.0043 1.11932,-0.107273 1.540546,0.01495 0.07693,0.0054 0.153864,0.01098 0.230796,0.01642 0.146431,0.170029 0.205297,0.362013 0.176599,0.575868 0.03293,0.229413 0.01565,0.478449 0.02351,0.709505 0.0351,1.033744 -0.0223,2.027812 -0.09362,3.056715 -0.02317,0.33418 0.497121,0.396331 0.578894,0.07832 0.330808,-1.287707 0.208581,-2.854704 0.08022,-4.168343 -0.119029,-1.217863 -1.665453,-0.858529 -2.536948,-0.858788 -0.716939,-2.6e-4 -2.324044,-0.291824 -2.287566,0.854725 0.02178,0.68487 0.101049,1.337497 0.06353,2.028072 z M 33.906519,41.453471 C 33.414672,40.891347 32.896546,40.54109 32.776567,39.762 c -0.04305,-0.279982 -0.435316,-0.220251 -0.408606,0.06811 0.08367,0.902268 0.516743,2.441603 1.002367,3.176263 0.409988,0.620125 1.080854,1.027607 1.731752,0.793525 0.759036,-0.272979 1.329977,-1.308366 1.848275,-1.975429 0.737339,-0.948945 2.183578,-2.679402 2.840614,-3.714961 0.160779,-0.253444 -0.0752,-0.712876 -0.291478,-0.510864 -1.270419,1.186744 -2.704038,2.7132 -3.767258,3.885163 -0.570768,0.629028 -1.132978,0.761283 -1.825714,-0.03034 z"
     id="path5"
     inkscape:connector-curvature="0"
     style="fill:#045d99" /></svg>