<?xml version="1.0" encoding="UTF-8" standalone="no"?>
<!-- Generator: Adobe Illustrator 23.0.6, SVG Export Plug-In . SVG Version: 6.00 Build 0)  -->

<svg
   xmlns:dc="http://purl.org/dc/elements/1.1/"
   xmlns:cc="http://creativecommons.org/ns#"
   xmlns:rdf="http://www.w3.org/1999/02/22-rdf-syntax-ns#"
   xmlns:svg="http://www.w3.org/2000/svg"
   xmlns="http://www.w3.org/2000/svg"
   xmlns:sodipodi="http://sodipodi.sourceforge.net/DTD/sodipodi-0.dtd"
   xmlns:inkscape="http://www.inkscape.org/namespaces/inkscape"
   version="1.1"
   id="Layer_1"
   x="0px"
   y="0px"
   viewBox="0 0 75 75"
   style="enable-background:new 0 0 75 75;"
   xml:space="preserve"
   inkscape:version="0.91 r13725"
   sodipodi:docname="ICONS-07.svg"><metadata
     id="metadata11"><rdf:RDF><cc:Work
         rdf:about=""><dc:format>image/svg+xml</dc:format><dc:type
           rdf:resource="http://purl.org/dc/dcmitype/StillImage" /></cc:Work></rdf:RDF></metadata><defs
     id="defs9" /><sodipodi:namedview
     pagecolor="#ffffff"
     bordercolor="#666666"
     borderopacity="1"
     objecttolerance="10"
     gridtolerance="10"
     guidetolerance="10"
     inkscape:pageopacity="0"
     inkscape:pageshadow="2"
     inkscape:window-width="1920"
     inkscape:window-height="1056"
     id="namedview7"
     showgrid="false"
     showguides="true"
     inkscape:guide-bbox="true"
     inkscape:zoom="3.1466667"
     inkscape:cx="-72.457627"
     inkscape:cy="37.5"
     inkscape:window-x="0"
     inkscape:window-y="24"
     inkscape:window-maximized="1"
     inkscape:current-layer="Layer_1"><sodipodi:guide
       position="-42.266949,71.504237"
       orientation="0,1"
       id="guide4139" /></sodipodi:namedview><style
     type="text/css"
     id="style3">
	.st0{fill:#045d99;}
	.st1{fill-rule:evenodd;clip-rule:evenodd;fill:#045d99;}
</style><path
     class="st0"
     d="m 35.766066,47.726518 c -2.371147,-3.672321 -4.971082,-7.197596 -7.774435,-10.551703 -1.582581,-1.893469 -3.23136,-3.73164 -4.942228,-5.509956 -0.831178,-0.863875 -1.656729,-1.757588 -2.55616,-2.551337 -0.739521,-0.652596 -1.628589,-1.229079 -2.656844,-1.092306 -0.197163,0.02627 -0.317588,0.111223 -0.390217,0.297041 -0.126857,0.324467 -0.137845,0.640894 -0.04664,0.94535 -0.001,0.0023 -0.0023,0.0044 -0.0033,0.0065 -0.171257,0.401563 -0.09487,0.802144 0.08111,1.177533 -1.94591,3.390199 -4.047173,6.657293 -6.21267,9.912326 -2.3609968,3.549126 -4.7459908,7.099593 -6.7926708,10.842847 -0.9021114,1.64994 -1.750264,3.347228 -2.3784725,5.123132 -0.36306,-0.18966 -0.7654279,-0.284714 -1.21594761,-0.222178 -0.65768912,0.0913 -1.07578,0.58488 -0.7821337,1.242212 0.40701326,0.911224 1.29268711,1.758483 1.95135881,2.497557 0.7957128,0.89291 1.6069698,1.863006 2.5205162,2.637636 0.5844339,0.495544 1.4458083,0.818672 2.2092709,0.57282 0.59435,-0.191357 0.9351656,-0.874329 0.3945956,-1.321186 0.070665,-0.02743 0.1432943,-0.05593 0.2192296,-0.08352 0.7452381,-0.271402 1.4943177,-0.532083 2.2386624,-0.806522 0.222803,-0.08219 0.4462311,-0.162592 0.6693921,-0.244423 0.0021,0.07111 0.01536,0.135165 0.03859,0.197343 l -0.0402,0.0402 c -0.01116,0.01117 0.0062,0.0285 0.01733,0.01742 l 0.03341,-0.03341 c 0.04297,0.104347 0.108632,0.207885 0.184121,0.341888 0.228967,0.406745 0.475713,0.802949 0.722814,1.198707 0.371458,0.595064 0.699499,1.193166 1.421867,1.388722 1.579723,0.42765 3.41968,-0.409247 4.895773,-0.891302 0.831,-0.271491 1.655836,-0.5621 2.461287,-0.902647 0.647326,-0.273726 1.399622,-0.545127 1.85041,-1.116697 0.391469,-0.496081 0.339832,-1.020569 0.09826,-1.572129 -0.36565,-0.835377 -0.780526,-1.65387 -1.180302,-2.474597 3.529384,-1.270353 7.061536,-2.533024 10.594851,-3.792924 0.907293,-0.323574 1.810835,-0.666712 2.726346,-0.966433 0.304009,-0.09952 0.613022,-0.182156 0.912742,-0.29436 0.08996,-0.0336 0.178046,-0.07165 0.26631,-0.109616 0.243707,0.187247 0.508498,0.305617 0.795355,0.28373 0.743004,-0.05673 1.17664,-0.831179 1.095077,-1.511737 -0.115868,-0.965898 -0.914976,-1.882036 -1.426513,-2.673996 z M 6.2569797,62.446623 c -0.1768846,0.008 -0.3637749,-0.02528 -0.5331551,-0.0737 C 5.3779169,62.274026 5.090792,62.057298 4.834488,61.811714 4.3097304,61.308844 3.8132922,60.770686 3.3145312,60.242444 2.7786066,59.675073 2.2521515,59.098144 1.7536586,58.49745 1.504948,58.197639 1.2630271,57.892111 1.0322731,57.578365 0.81974357,57.289364 0.43702961,56.817136 1.0119939,56.747186 c 0.3642215,-0.04431 0.6701067,0.0637 0.9417765,0.242904 0.010361,0.01751 0.022423,0.03386 0.036538,0.0478 0.024745,0.03501 0.049402,0.07004 0.074059,0.105055 0.00152,0.0027 0.00456,0.0031 0.00724,0.0019 0.022244,-0.0064 0.044311,-0.01286 0.066555,-0.0193 0.1925184,0.155799 0.3687777,0.341082 0.5391408,0.522077 0.5153774,0.547896 1.0259306,1.100257 1.531213,1.657443 0.5010838,0.552721 0.9901966,1.115713 1.4870815,1.672096 0.1616975,0.180994 0.3440316,0.434976 0.5460195,0.670822 -0.015008,0.03912 -0.029302,0.08514 -0.053065,0.147939 -0.00947,0.0252 0.01081,0.05341 0.034395,0.06039 0.087639,0.02618 0.1709884,0.03859 0.2518373,0.04145 0.026711,0.026 0.05378,0.05083 0.081207,0.07504 -0.00411,0.08138 0.029212,0.165181 0.1175657,0.235132 0.179922,0.14258 -0.3288446,0.234774 -0.4165721,0.238705 z m 14.7057223,-3.54886 c 0.170541,0.353948 0.468922,0.765696 0.426844,1.162257 -0.03752,0.352697 -0.306421,0.538873 -0.601318,0.713167 -1.169939,0.6911 -2.562057,1.102671 -3.845721,1.529338 -1.209068,0.40183 -2.664883,1.077566 -3.963287,0.826711 -0.769001,-0.148565 -1.095345,-0.983674 -1.491369,-1.580616 -0.211815,-0.319106 -0.453915,-0.847438 -0.804826,-1.090699 0.219498,-0.0804 0.439174,-0.160446 0.658851,-0.24058 0.184746,0.531815 0.451503,1.033166 0.733713,1.51951 0.266757,0.45981 0.517164,0.882993 1.08114,0.975902 0.617489,0.101669 1.331638,-0.126588 1.914286,-0.306242 0.696996,-0.215031 1.378717,-0.482591 2.063922,-0.731928 0.700123,-0.254963 1.400157,-0.510732 2.099655,-0.767392 0.457489,-0.167773 1.080962,-0.282391 1.357277,-0.728264 0.241921,-0.390308 0.116047,-0.857176 -0.05789,-1.247306 -0.258537,-0.580145 -0.556292,-1.171725 -0.876919,-1.727483 0.04163,-0.01501 0.08309,-0.03019 0.124714,-0.04512 -0.03537,0.292931 0.283998,0.513144 0.514483,0.355734 0.22191,0.460973 0.444178,0.922034 0.666445,1.383005 z m -9.113042,1.133938 c 1.497712,-0.545216 2.996407,-1.087841 4.494924,-1.630912 0.867181,-0.314371 1.735166,-0.627315 2.603062,-0.940526 0.198146,0.439621 0.434708,0.865127 0.655188,1.293223 0.09425,0.18287 0.289627,0.430062 0.31062,0.629281 0.03689,0.351179 -0.1399,0.480537 -0.43444,0.645093 -0.42488,0.237274 -0.979654,0.363864 -1.434283,0.533691 -0.478125,0.178314 -0.955714,0.357878 -1.433391,0.536907 -0.917209,0.343674 -1.846568,0.75051 -2.820327,0.903363 -0.38736,0.06083 -0.727192,0.03966 -0.960894,-0.316964 -0.122212,-0.186532 -0.231737,-0.384501 -0.343853,-0.577198 -0.209581,-0.360289 -0.411123,-0.725494 -0.636606,-1.075958 z m 22.285226,-8.861472 c -0.752653,0.302134 -1.526478,0.555489 -2.290119,0.828499 -2.302537,0.82287 -4.603109,1.651191 -6.902163,2.483798 -5.017269,1.817178 -10.036236,3.632032 -15.0256318,5.524965 -0.8742386,0.331703 -1.7427599,0.674663 -2.6054744,1.03558 -0.1842994,0.077 -0.3794979,0.147582 -0.565584,0.231467 C 6.689275,61.210038 6.6333509,61.146163 6.5818935,61.08202 6.1896207,60.592461 5.7791233,60.119876 5.3646952,59.649076 4.5814894,58.75965 3.7925663,57.870672 2.9728223,57.014657 2.8299745,56.865466 2.6796227,56.726014 2.5207839,56.602641 3.8730577,53.07835 5.8265605,49.80509 7.8415264,46.626528 10.112975,43.043364 12.542011,39.563561 14.846067,36.001659 c 0.900325,-1.39185 1.831382,-2.798349 2.631828,-4.261043 0.08183,0.142938 0.342603,0.157678 0.377891,-0.03886 0.03001,-0.167862 0.06307,-0.334384 0.09451,-0.501173 0.06968,0.09371 0.138917,0.184388 0.204132,0.270508 1.391312,1.836919 2.839534,3.629172 4.314733,5.399089 3.029908,3.635515 6.169967,7.17839 9.295644,10.731446 0.776862,0.882905 1.554887,1.764827 2.332196,2.647195 0.167058,0.18966 0.355198,0.454361 0.565137,0.717008 -0.177509,0.06307 -0.352251,0.134182 -0.527259,0.2044 z M 36.22936,51.01407 c -0.320625,0.205115 -0.527168,-0.15464 -0.681004,-0.327951 -0.700214,-0.788119 -1.394441,-1.581687 -2.091707,-2.372487 -2.606367,-2.956385 -5.229262,-5.898298 -7.822675,-8.866206 -1.418025,-1.622962 -2.821936,-3.25843 -4.196007,-4.918912 -0.712006,-0.86057 -1.416149,-1.727751 -2.114129,-2.599846 -0.362255,-0.452753 -0.747649,-0.898448 -1.079799,-1.373982 -0.129537,-0.185461 -0.267293,-0.389951 -0.322771,-0.612575 -0.0073,-0.02903 -0.01206,-0.05932 -0.01572,-0.09006 0.24058,-0.01 0.46651,-0.261933 0.319285,-0.546824 -0.02439,-0.04127 -0.04341,-0.08282 -0.05958,-0.124533 0.108543,-0.07022 0.248174,-0.09103 0.417822,-0.02528 0.139721,0.05422 0.253624,-0.04529 0.289716,-0.167057 0.436405,0.183405 0.825015,0.494473 1.191469,0.831536 0.699231,0.643128 1.359153,1.334852 2.021577,2.015412 1.251682,1.286166 2.470488,2.604313 3.65499,3.952477 2.445474,2.783164 4.743991,5.694256 6.881882,8.720054 1.07873,1.526836 2.117167,3.082259 3.113348,4.664215 0.203775,0.323574 0.468566,0.673145 0.591582,1.037902 0.08058,0.238347 0.16938,0.632943 -0.09826,0.80411 z m -26.051528,9.723919 c -0.0064,0.106041 -0.0054,0.213244 -0.01046,0.319642 -0.002,0.04065 0.06504,0.04065 0.06307,0 -0.005,-0.106309 -0.0043,-0.213601 -0.01046,-0.319642 -0.0017,-0.02697 -0.04065,-0.02706 -0.04217,0 z M 24.749997,26.455876 c 1.440269,-1.896149 2.644425,-3.992768 4.01805,-5.940642 0.677254,-0.960269 1.366835,-1.91214 2.064994,-2.857134 0.348856,-0.472227 0.700123,-0.942758 1.050944,-1.413468 0.36565,-0.490453 0.823585,-0.971525 1.069437,-1.533893 0.03252,-0.07451 -0.04431,-0.194215 -0.129537,-0.129537 -0.851458,0.645719 -1.491369,1.73606 -2.133692,2.587608 -0.731302,0.969828 -1.445897,1.951536 -2.14486,2.945039 -1.40114,1.991917 -2.936552,4.02323 -4.034487,6.202307 -0.08228,0.162769 0.13302,0.279263 0.239151,0.13972 z m 28.521392,12.247919 c -2.574028,0.543786 -5.091686,1.349951 -7.575843,2.209092 -2.418763,0.836361 -4.827788,1.754106 -7.132201,2.87107 -0.06718,0.03261 -0.01984,0.147761 0.05136,0.121853 2.431538,-0.887996 4.844226,-1.818873 7.300511,-2.638707 2.459767,-0.821085 4.95929,-1.507093 7.437282,-2.269036 0.188498,-0.05798 0.110509,-0.334741 -0.08111,-0.294272 z M 21.395176,24.017996 c 0.174472,-0.60114 0.348318,-1.202012 0.51493,-1.805385 0.145081,-0.525384 0.384322,-1.084177 0.378068,-1.631983 -0.0014,-0.115958 -0.159553,-0.160536 -0.218871,-0.05922 -0.276763,0.472317 -0.345909,1.075065 -0.480269,1.602949 -0.154462,0.606768 -0.301241,1.215143 -0.447573,1.823877 -0.0394,0.164377 0.206366,0.232719 0.253715,0.06977 z m 25.26725,22.352318 c -0.895858,0.09657 -1.798238,0.560938 -2.621734,0.908991 -0.965629,0.408084 -1.937064,0.84699 -2.828009,1.402211 -0.105777,0.06601 -0.03769,0.261931 0.08925,0.211548 0.939364,-0.372978 1.853089,-0.8109 2.787182,-1.197456 0.855925,-0.354127 1.85309,-0.595779 2.637189,-1.090073 0.09701,-0.06119 0.06861,-0.249515 -0.06387,-0.235221 z m -2.790668,-13.67729 c 0.713167,-3.124693 -1.109279,-6.219102 -3.543945,-8.053609 -1.452241,-1.094095 -3.238775,-1.799043 -5.01575,-1.082034 -1.496551,0.603909 -2.529986,1.947874 -2.707764,3.551181 -0.002,0.01671 -0.0018,0.03252 -9e-5,0.04761 -0.467047,1.025662 -0.69655,2.162368 -0.659654,3.286123 0.103096,3.142649 2.447529,6.062585 5.546315,6.729475 3.00677,0.647059 5.724182,-1.601877 6.380888,-4.478753 z M 32.662813,32.370523 c -0.526812,-1.499589 -0.483841,-3.176241 0.07307,-4.661536 0.04288,-0.114438 0.09371,-0.237095 0.15071,-0.36431 0.09371,-0.0091 0.178759,-0.06289 0.19627,-0.171524 0.02171,-0.135255 0.05271,-0.267739 0.08889,-0.398348 0.712362,-1.287596 1.971103,-2.701778 3.391182,-2.077949 0.04038,0.0177 0.0754,-0.03707 0.03547,-0.06057 -0.732196,-0.43149 -1.47386,-0.263986 -2.111538,0.150264 0.255411,-0.209582 0.536103,-0.390398 0.836539,-0.535568 1.358973,-0.656886 2.785487,-0.299543 4.019123,0.463384 2.27779,1.408735 4.128378,3.932824 4.167418,6.687668 0.03493,2.46361 -1.756696,5.038799 -4.27489,5.430625 -2.86151,0.445249 -5.666025,-1.882928 -6.572246,-4.462137 z m 8.918201,-9.380781 c 0.879599,-1.144479 1.390241,-2.380795 1.582582,-3.814543 0.01028,-0.07647 -0.110242,-0.08701 -0.130877,-0.0177 -0.385037,1.295994 -0.904882,2.589217 -1.524336,3.789799 -0.02555,0.04949 0.0403,0.0846 0.07263,0.04244 z m 2.674799,-6.686684 c 0.679398,-1.39855 1.309482,-2.860081 1.863452,-4.313037 0.05253,-0.137934 -0.181352,-0.238259 -0.240312,-0.101394 -0.615255,1.427673 -1.183966,2.91797 -1.671293,4.394153 -0.0092,0.02796 0.03493,0.04727 0.04815,0.02028 z m 0.420413,-8.2586353 c 0.394238,-0.4919716 0.75846,-1.0588063 1.160292,-1.58812 -0.490007,1.2598114 0.0038,2.6863232 1.027627,3.5427841 1.192811,0.9979692 2.860261,0.9028262 4.048603,-0.055209 C 52.106094,8.981911 52.570193,7.3458179 51.862565,5.9547722 51.181649,4.6161667 49.608537,3.741928 48.111897,4.0440612 46.294631,4.4109627 44.97961,6.2250126 44.3598,7.8602125 c -0.06557,0.1725965 0.199664,0.3300059 0.316426,0.1842102 z m 1.240248,-1.6921961 c 0.579967,-0.7460421 1.245249,-1.4012298 2.192385,-1.6408281 1.58553,-0.4011171 3.361612,0.8722735 3.464616,2.5173002 0.10622,1.6978242 -1.666111,3.2446703 -3.334811,2.9243133 -1.6687,-0.3204468 -2.629595,-2.1977463 -2.315223,-3.7788981 0.0018,-0.00849 -0.0019,-0.015723 -0.007,-0.021887 z m 0.34028,21.4666434 c -0.170991,-0.01813 -0.206992,0.262737 -0.04056,0.299632 0.966612,0.21396 2.07643,0.230308 2.970679,-0.240045 0.166343,-0.08746 0.04208,-0.307404 -0.118906,-0.281943 -0.960448,0.151602 -1.83281,0.326165 -2.811213,0.222356 z m 12.293121,-1.740973 c -1.244624,-0.139453 -2.609851,0.321609 -3.803644,0.614093 -0.03252,0.008 -0.02572,0.0595 0.0078,0.05861 1.227739,-0.03386 2.667651,0.04949 3.830802,-0.414428 0.139899,-0.05575 0.115599,-0.241384 -0.03502,-0.258269 z m 6.450749,-3.256999 c -1.245965,-0.35904 -2.824436,0.01179 -3.444961,1.235781 -0.07103,0.140167 0.112473,0.305527 0.22861,0.176347 0.830463,-0.923015 2.167283,-1.259721 3.323465,-0.752652 1.202725,0.527527 1.589549,1.851392 1.083909,3.01758 -0.510464,1.176818 -1.805116,1.941978 -3.043219,1.348074 -1.23578,-0.592832 -1.75625,-2.030598 -1.487081,-3.308367 0.0419,-0.19895 -0.217533,-0.315981 -0.330094,-0.139185 -0.692442,1.087662 -0.24228,2.529718 0.598905,3.392969 0.91051,0.93445 2.279846,1.233278 3.435045,0.574071 2.209272,-1.260884 2.271628,-4.784907 -0.364579,-5.544618 z"
     id="path5"
     inkscape:connector-curvature="0"
     style="fill:#045d99" /></svg>