<?xml version="1.0" encoding="utf-8"?>
<!-- Generator: Adobe Illustrator 23.0.6, SVG Export Plug-In . SVG Version: 6.00 Build 0)  -->
<svg version="1.1" id="Layer_1" xmlns="http://www.w3.org/2000/svg" xmlns:xlink="http://www.w3.org/1999/xlink" x="0px" y="0px"
	 viewBox="0 0 50 50" style="enable-background:new 0 0 50 50;" xml:space="preserve">
<style type="text/css">
	.st0{fill:#D54E41;}
	.st1{fill-rule:evenodd;clip-rule:evenodd;fill:#D54E41;}
</style>
<path class="st0" d="M26.0631,28.1667l10.0664,6.9995V21.2327l-4.4524,3.0668L26.0631,28.1667z M25.0005,0.0005
	C11.1935,0.0005,0,11.192,0,24.999c0,13.8071,11.1935,25.0005,25.0005,25.0005C38.8065,49.9995,50,38.8061,50,24.999
	C50,11.192,38.8065,0.0005,25.0005,0.0005z M36.7438,36.3327v0.0007H12.3706c-1.3652,0-2.4824-1.1171-2.4824-2.4824v-16.957
	c0-1.3654,1.1171-2.4824,2.4824-2.4824l0.0098,0.0073l-0.0098-0.0079h25.3322h0.0001c1.3652,0,2.4822,1.117,2.4822,2.4822v0.7195
	l0.0007-0.0005l-0.0007,0.0007l0.0041,16.2402C40.1299,35.6583,39.3478,36.3026,36.7438,36.3327z M24.9953,28.772
	c-0.1215,0-0.2427-0.0364-0.3471-0.1089l-0.1813-0.1263l-10.3388,7.1891H35.87l-10.3416-7.191
	C25.5284,28.5349,25.1157,28.772,24.9953,28.772z M37.7021,14.4117l0.0007-0.0006l-0.0022,0.0017L37.7021,14.4117z M35.8533,15.0186
	h-21.643l10.7861,7.9971L35.8533,15.0186z M23.9249,28.1595l-10.0568-6.9271l-0.0057,13.9381l10.0725-7.0039L23.9249,28.1595z"/>
</svg>
