<?xml version="1.0" encoding="utf-8"?>
<!-- Generator: Adobe Illustrator 23.0.6, SVG Export Plug-In . SVG Version: 6.00 Build 0)  -->
<svg version="1.1" id="Layer_1" xmlns="http://www.w3.org/2000/svg" xmlns:xlink="http://www.w3.org/1999/xlink" x="0px" y="0px"
	 viewBox="0 0 50 50" style="enable-background:new 0 0 50 50;" xml:space="preserve">
<style type="text/css">
	.st0{fill:#25CD63;}
	.st1{fill-rule:evenodd;clip-rule:evenodd;fill:#25CD63;}
</style>
<g>
	<path class="st0" d="M33.171,28.571c-0.4377-0.2169-2.5886-1.267-2.9887-1.4114c-0.4014-0.1448-0.6934-0.2175-0.9847,0.2166
		c-0.2911,0.4352-1.1292,1.4114-1.3849,1.7009c-0.2551,0.29-0.5096,0.3262-0.9472,0.109c-0.4366-0.2169-1.8464-0.6749-3.517-2.1535
		c-1.2999-1.1501-2.1779-2.5699-2.433-3.0048c-0.2551-0.4342-0.027-0.6689,0.1917-0.8849c0.1968-0.1951,0.4374-0.5071,0.6564-0.7599
		c0.2187-0.2539,0.2914-0.4344,0.4369-0.7241c0.1465-0.2897,0.0727-0.5428-0.0362-0.7606
		c-0.1093-0.2165-0.9843-2.3522-1.3487-3.2208c-0.3645-0.8685-0.7279-0.7238-0.9836-0.7238c-0.2553,0-0.5466-0.0364-0.8386-0.0364
		c-0.2916,0-0.7657,0.1089-1.1662,0.5427c-0.4007,0.4346-1.5302,1.484-1.5302,3.6192c0,2.1356,1.5667,4.1987,1.7856,4.488
		c0.2184,0.2888,3.0245,4.8129,7.4702,6.5511c4.4473,1.7366,4.4473,1.1579,5.2491,1.0846c0.8008-0.0716,2.5867-1.0489,2.9518-2.0626
		c0.3642-1.0131,0.3642-1.8825,0.2554-2.0633C33.8992,28.8964,33.6076,28.7877,33.171,28.571z"/>
	<path class="st0" d="M25,0C11.1929,0,0,11.1929,0,25s11.1929,25,25,25s25-11.1929,25-25S38.8071,0,25,0z M24.9999,39.8839
		c-3.0468,0-5.8834-0.9072-8.2522-2.462l-5.7643,1.832l1.8737-5.527C11.0615,31.2734,10,28.2568,10,25.0004
		c0-8.207,6.7283-14.8844,15.0001-14.8844C33.2708,10.116,40,16.7934,40,25.0003S33.2707,39.8839,24.9999,39.8839z"/>
</g>
</svg>
