<?xml version="1.0" encoding="utf-8"?>
<!-- Generator: Adobe Illustrator 23.0.6, SVG Export Plug-In . SVG Version: 6.00 Build 0)  -->
<svg version="1.1" id="Layer_1" xmlns="http://www.w3.org/2000/svg" xmlns:xlink="http://www.w3.org/1999/xlink" x="0px" y="0px"
	 viewBox="0 0 50 50" style="enable-background:new 0 0 50 50;" xml:space="preserve">
<style type="text/css">
	.st0{fill:#3CA1F2;}
	.st1{fill-rule:evenodd;clip-rule:evenodd;fill:#3CA1F2;}
</style>
<path class="st1" d="M28.4725,15.2358c-2.1825,0.7942-3.5617,2.8425-3.405,5.0842l0.0525,0.865l-0.8733-0.1058
	c-3.1775-0.4058-5.9542-1.7825-8.3117-4.0958l-1.1525-1.1475l-0.2967,0.8475c-0.6283,1.8892-0.2267,3.8842,1.0825,5.2258
	c0.6983,0.7417,0.5408,0.8475-0.6633,0.4058c-0.4192-0.1408-0.7858-0.2467-0.8208-0.1942c-0.1217,0.1242,0.2967,1.73,0.6283,2.3658
	c0.4542,0.8833,1.3792,1.7475,2.3925,2.26l0.8558,0.4058L16.9483,27.17c-0.9775,0-1.0125,0.0175-0.9075,0.3892
	c0.3492,1.1475,1.7283,2.3658,3.265,2.8958l1.0825,0.37l-0.9425,0.565c-1.3967,0.8133-3.0383,1.2717-4.68,1.3058
	c-0.7867,0.0175-1.4325,0.0883-1.4325,0.1417c0,0.1758,2.1308,1.1642,3.37,1.5533c3.7192,1.1475,8.1375,0.6525,11.455-1.3067
	c2.3575-1.395,4.7142-4.1667,5.815-6.8508c0.5942-1.4292,1.1875-4.0425,1.1875-5.295c0-0.8125,0.0525-0.9183,1.03-1.8892
	c0.5767-0.565,1.1175-1.1825,1.2225-1.3592c0.175-0.3358,0.1567-0.3358-0.7333-0.0358c-1.4842,0.53-1.6942,0.4592-0.96-0.335
	c0.5408-0.565,1.1875-1.5892,1.1875-1.8892c0-0.0525-0.2617,0.035-0.5592,0.1942c-0.3142,0.1767-1.0125,0.4417-1.5367,0.6
	l-0.9425,0.3008l-0.8558-0.5833c-0.4717-0.3175-1.1342-0.6708-1.4842-0.7767C30.6383,14.9183,29.2758,14.9533,28.4725,15.2358z
	 M25,50C11.1933,50,0,38.8067,0,25C0,11.1925,11.1933,0,25,0s25,11.1925,25,25C50,38.8067,38.8067,50,25,50z"/>
</svg>
