<?xml version="1.0" encoding="utf-8"?>
<!-- Generator: Adobe Illustrator 23.0.6, SVG Export Plug-In . SVG Version: 6.00 Build 0)  -->
<svg version="1.1" id="Layer_1" xmlns="http://www.w3.org/2000/svg" xmlns:xlink="http://www.w3.org/1999/xlink" x="0px" y="0px"
	 viewBox="0 0 50 50" style="enable-background:new 0 0 50 50;" xml:space="preserve">
<style type="text/css">
	.st0{fill:#F1C609;}
	.st1{fill-rule:evenodd;clip-rule:evenodd;fill:#F1C609;}
</style>
<g>
	<path class="st0" d="M25,0C11.1929,0,0,11.1929,0,25s11.1929,25,25,25s25-11.1929,25-25S38.8071,0,25,0z M40,32.5219
		C40,33.842,38.8318,35,37.5,35h-25c-1.3318,0-2.5-1.158-2.5-2.4781V17.5c0-1.3318,1.1682-2.5,2.5-2.5h25
		c1.3318,0,2.5,1.1682,2.5,2.5V32.5219z"/>
	<path class="st0" d="M18.7227,26.584l-4.5,3c-0.2297,0.1531-0.2917,0.4636-0.1387,0.6934
		c0.0964,0.1445,0.2549,0.2227,0.4165,0.2227c0.0952,0,0.1917-0.0271,0.2769-0.084l4.5-3c0.2297-0.153,0.2917-0.4636,0.1387-0.6933
		C19.2627,26.4927,18.9524,26.4299,18.7227,26.584z"/>
	<path class="st0" d="M31.2773,26.584c-0.23-0.1541-0.54-0.0913-0.6934,0.1387c-0.1531,0.2297-0.0911,0.5403,0.1387,0.6933l4.5,3
		c0.0852,0.0569,0.1816,0.084,0.2769,0.084c0.1616,0,0.3201-0.0782,0.4165-0.2227c0.1531-0.2297,0.0911-0.5403-0.1387-0.6934
		L31.2773,26.584z"/>
	<path class="st0" d="M35.2227,20.084L25,26.8991L14.7773,20.084c-0.2302-0.1538-0.5405-0.0916-0.6934,0.1387
		c-0.1531,0.2297-0.0911,0.5403,0.1387,0.6933l10.5,7C24.8066,27.9719,24.9033,28,25,28s0.1934-0.0281,0.2773-0.084l10.5-7
		c0.2297-0.153,0.2917-0.4636,0.1387-0.6933C35.7627,19.9924,35.4524,19.9302,35.2227,20.084z"/>
</g>
</svg>
