<?xml version="1.0" encoding="UTF-8" standalone="no"?>
<!-- Generator: Adobe Illustrator 23.0.6, SVG Export Plug-In . SVG Version: 6.00 Build 0)  -->

<svg
   xmlns:dc="http://purl.org/dc/elements/1.1/"
   xmlns:cc="http://creativecommons.org/ns#"
   xmlns:rdf="http://www.w3.org/1999/02/22-rdf-syntax-ns#"
   xmlns:svg="http://www.w3.org/2000/svg"
   xmlns="http://www.w3.org/2000/svg"
   xmlns:sodipodi="http://sodipodi.sourceforge.net/DTD/sodipodi-0.dtd"
   xmlns:inkscape="http://www.inkscape.org/namespaces/inkscape"
   version="1.1"
   id="Layer_1"
   x="0px"
   y="0px"
   viewBox="0 0 75 74.999999"
   xml:space="preserve"
   inkscape:version="0.91 r13725"
   sodipodi:docname="ukcash.svg"
   width="75"
   height="75"><metadata
     id="metadata11"><rdf:RDF><cc:Work
         rdf:about=""><dc:format>image/svg+xml</dc:format><dc:type
           rdf:resource="http://purl.org/dc/dcmitype/StillImage" /><dc:title></dc:title></cc:Work></rdf:RDF></metadata><defs
     id="defs9" /><sodipodi:namedview
     pagecolor="#ffffff"
     bordercolor="#666666"
     borderopacity="1"
     objecttolerance="10"
     gridtolerance="10"
     guidetolerance="10"
     inkscape:pageopacity="0"
     inkscape:pageshadow="2"
     inkscape:window-width="1920"
     inkscape:window-height="1056"
     id="namedview7"
     showgrid="false"
     fit-margin-top="0"
     fit-margin-left="0"
     fit-margin-right="0"
     fit-margin-bottom="0"
     inkscape:zoom="6.2933333"
     inkscape:cx="28.283898"
     inkscape:cy="34.121538"
     inkscape:window-x="1920"
     inkscape:window-y="24"
     inkscape:window-maximized="1"
     inkscape:current-layer="Layer_1"
     showguides="true"
     inkscape:guide-bbox="true"><sodipodi:guide
       position="-121.08051,27.330508"
       orientation="0,1"
       id="guide4188" /></sodipodi:namedview><style
     type="text/css"
     id="style3">
	.st0{fill:#045d99;}
</style><path
     class="st0"
     d="m 10.111751,55.515195 c -1.8329004,-2.8199 -3.8692004,-5.5055 -5.9673004,-8.1319 -1.0508,-1.3154 -2.1023,-2.6334 -3.20280003,-3.9078 -0.1328,-0.1538 -0.4093,0.0541 -0.2851,0.22 2.39960003,3.2049 4.99370003,6.2542 7.31240003,9.5226 2.2786004,3.2119 4.6132004,6.6792 5.7046004,10.5054 0.0844,0.296 0.5468,0.1701 0.4619,-0.1273 -0.8269,-2.8991 -2.3914,-5.5698 -4.0237,-8.081 z m 61.8678,-15.3275 c -7.9541,5.1228 -16.2849,9.6402 -24.9858,13.363 -8.5226,3.1883 -17.1953,6.0819 -25.9589,8.5332 -2.1569,0.6033 -4.3249,1.1754 -6.5158,1.643 -0.3014,0.0643 -0.1738,0.5262 0.1274,0.4619 4.1711,-0.8903 8.275,-2.1099 12.3494,-3.3616 4.6177,-1.4187 9.2058,-2.9356 13.7672,-4.5257 2.1307,-0.7428 4.2559,-1.5023 6.3694,-2.2931 0.0127,-0.0047 0.0236,-0.011 0.0347,-0.017 0.0075,-0.0025 0.0149,-0.0039 0.0225,-0.0071 8.7177,-3.7265 17.0637,-8.2511 25.0318,-13.3829 0.2582,-0.1665 0.0183,-0.5813 -0.2419,-0.4137 z m -58.6556,1.0386 c 4.7503,-0.1031 9.505,-0.3181 14.2073,-1.039 2.9764,-0.4563 5.9189,-1.1168 8.7834,-2.049 7.2279,-2.0101 14.0918,-5.0533 21.0014,-7.932 0.1608,-0.067 0.1885,-0.2478 0.1295,-0.3677 0.7836,0.2804 1.5172,0.7178 2.2153,1.1917 1.3082,0.8882 2.587,1.823 3.8792,2.7344 2.6039,1.8367 5.2077,3.6733 7.8116,5.51 0.2524,0.1781 0.492,-0.2371 0.2418,-0.4137 -2.7822,-1.9625 -5.5645,-3.9249 -8.3467,-5.8874 -1.2995,-0.9166 -2.5753,-1.8944 -3.9319,-2.7255 -1.1417,-0.6995 -2.3868,-1.2096 -3.7431,-0.9553 -0.1314,0.0246 -0.1001,0.235 0.0313,0.2316 0.5477,-0.0144 1.0707,0.0715 1.5732,0.2251 -6.9055,2.8773 -13.7654,5.918 -20.989,7.9269 -4.9585,1.6134 -10.1337,2.3935 -15.3237,2.7588 -4.2227,0.2973 -8.4529,0.2781 -12.6808004,0.435 -2.6538,0.0985 -5.3011,0.353 -7.95220003,0.5085 -0.30639996,0.018 -0.30839996,0.4972 0,0.479 2.43880003,-0.143 4.87410003,-0.3726 7.31440003,-0.4825 1.9249996,-0.0865 3.8526004,-0.1071 5.7790004,-0.1489 z m 42.2765,-7.0537 c 0.7971,0.5112 1.8483,0.5196 2.6772,0.0746 0.2048,-0.1099 0.5074,-0.2881 0.5414,-0.5396 0.0201,-0.1488 -0.0692,-0.2892 -0.2149,-0.3292 -0.1532,-0.0421 -0.2923,0.0546 -0.4109,0.1381 -0.3411,0.2401 -0.731,0.3801 -1.1414,0.395 -0.2333,0.0085 -0.4466,-0.0169 -0.6709,-0.0749 -0.1102,-0.0285 -0.2193,-0.0637 -0.3224,-0.1119 -0.0513,-0.024 -0.0995,-0.0537 -0.1501,-0.0786 -0.1336,-0.0656 -0.2344,-0.0322 -0.3561,0.0222 -0.0774,-0.0468 -0.1531,0.0587 -0.0943,0.1226 -0.0028,0.0395 -0.0056,0.079 -0.0085,0.1186 -0.0094,0.1074 0.0655,0.2084 0.1509,0.2631 z m 9.6546,4.2701 c -0.2844,0.3553 -0.4521,0.7534 -0.4676,1.2118 -0.0073,0.2163 0.017,0.4416 0.0837,0.6481 0.037,0.1147 0.0898,0.2276 0.1486,0.3328 0.074,0.1322 0.1542,0.2218 0.304,0.2648 0.1485,0.0427 0.2722,-0.0741 0.283,-0.2155 0.0094,-0.1235 -0.0346,-0.2143 -0.0889,-0.3217 -0.0371,-0.0733 -0.054,-0.1223 -0.0863,-0.2148 -0.0562,-0.1607 -0.1034,-0.3471 -0.1153,-0.4936 -0.028,-0.344 0.0193,-0.7161 0.1879,-1.0197 0.0835,-0.1507 -0.1325,-0.3379 -0.2491,-0.1922 z m -55.9384008,7.659 c 0.0865,-0.111 0.1611,-0.2147 0.2103,-0.3478 0.0451,-0.122 0.0745,-0.2456 0.092,-0.3743 0.0352,-0.2586 0.0272,-0.5132 -0.0172,-0.7703 -0.0852,-0.4929 -0.3345,-0.9497 -0.7129996,-1.2778 -0.2182,-0.1891 -0.5231,0.107 -0.3197,0.3198 0.2749,0.2876 0.4523,0.6731 0.5097996,1.0661 0.058,0.3964 -0.0417,0.7718 -0.1486996,1.1594 -0.0571,0.2066 0.2381996,0.4153 0.3864996,0.2249 z m 7.1232008,11.6138 c 0.3522,0.0476 0.7016,0.1243 1.0388,0.2369 0.3444,0.115 0.6661,0.3063 1.0223,0.3754 0.1842,0.0357 0.3099,-0.169 0.182,-0.3128 -0.2584,-0.2906 -0.6525,-0.4249 -1.017,-0.5354 -0.3787,-0.1147 -0.7729,-0.1894 -1.1683,-0.212 -0.7814,-0.0446 -1.5471,0.1101 -2.2766,0.3857 -0.1415,0.0534 -0.0844,0.28 0.0636,0.2306 0.6883,-0.2299 1.4376,-0.2654 2.1552,-0.1684 z m 2.2113,-44.5238 c 0.0128,-0.0012 0.0215,-0.0072 0.0289,-0.0139 0.0667,0.046 0.1584,0.0979 0.1818,0.1157 0.1442,0.1097 0.277,0.2384 0.4133,0.358 0.2741,0.2404 0.5443,0.4854 0.8104,0.7347 0.5057,0.4738 0.9965,0.9633 1.4721,1.4673 1.007,1.0673 1.9515,2.198 2.8161,3.3837 1.156,1.5855 2.1722,3.2693 3.0371,5.0285 -1.2152,0.3836 -2.4817,0.7625 -3.5836,1.3636 -0.2475,0.135 -0.0726,0.4918 0.1846,0.4378 0.2887,-0.0606 0.5759,-0.1375 0.862,-0.2233 0.1283,0.2254 0.2021,0.3853 0.4493,0.6196 0.2655,0.2517 0.5439,0.4909 0.8123,0.7396 0.5671,0.5256 1.1288,1.0577 1.6807,1.5993 1.1044,1.0837 2.1652,2.21 3.1876,3.3712 0.1881,0.2137 0.5432,0.038 0.5452,-0.2258 0.0115,-1.553 0.023,-3.1061 0.0345,-4.6591 0.0057,-0.7765 0.0133,-1.553 0.0173,-2.3295 0.0024,-0.4718 0.0304,-1.0113 -0.3766,-1.3392 -0.8155,-0.6569 -2.3109,0.1545 -3.1257,0.4245 -0.0255,0.0085 -0.0517,0.0166 -0.0773,0.025 -0.9114,-1.8689 -1.9871,-3.6545 -3.2254,-5.3312 -0.8617,-1.1666 -1.7946,-2.2775 -2.801,-3.322 -0.5314,-0.5515 -1.0813,-1.0854 -1.6492,-1.5993 -0.4619,-0.418 -0.9594,-0.987 -1.551,-1.2106 -0.1857,-0.0702 -0.3273,0.106 -0.3474,0.2646 -0.0215,0.17 0.0132,0.3378 0.204,0.3208 z m 9.0417,11.661 c 0.3018,0.6449 0.5838,1.2994 0.8446,1.9625 0.1488,0.3782 0.7667,0.2135 0.6159,-0.1698 -0.2648,-0.6732 -0.5501,-1.3374 -0.8548,-1.9922 0.3554,-0.1176 0.7103,-0.2365 1.0667,-0.3511 0.5361,-0.1725 1.3853,-0.6145 1.5969,0.2105 0.126,0.4909 -0.006,1.2338 -0.0097,1.7406 -0.0045,0.604 -0.0089,1.2079 -0.0134,1.8118 -0.0075,1.0184 -0.0151,2.0368 -0.0226,3.0553 -0.883,-0.9791 -1.7928,-1.9333 -2.7359,-2.8551 -0.5534,-0.541 -1.1176,-1.0696 -1.6955,-1.5843 -0.2621,-0.2335 -0.5224,-0.4717 -0.796,-0.6917 -0.1741,-0.14 -0.306,-0.2054 -0.4473,-0.2616 0.8148,-0.267 1.62,-0.5953 2.4185,-0.8642 0.0108,-0.0036 0.0217,-0.0071 0.0326,-0.0107 z m 11.3382,25.3379 c 0.1559,-0.2024 -0.1657,-0.4142 -0.338,-0.2608 -0.7952,0.7083 -1.596,1.2842 -2.6599,1.5116 -1.0232,0.2187 -1.978,-0.0016 -2.9809,-0.1551 -0.0833,-0.5732 -0.2431,-1.1318 -0.4055,-1.5975 -0.1503,-0.4309 -0.3318,-0.8392 -0.5262,-1.24 0.4215,-0.2277 0.7878,-0.5138 1.0459,-0.8594 0.0712,-0.0953 -0.0481,-0.249 -0.1585,-0.2062 -0.3966,0.1537 -0.7589,0.3734 -1.1291,0.5809 -0.2098,-0.4106 -0.4264,-0.819 -0.6321,-1.2409 -0.295,-0.605 -0.5626,-1.3272 -0.3302,-1.9976 0.2343,-0.6762 0.9166,-1.1955 1.6277,-0.9243 0.1733,0.0661 0.2945,-0.2199 0.1269,-0.301 -0.6824,-0.3301 -1.3785,-0.0161 -1.8143,0.5662 -0.5454,0.7286 -0.4533,1.6062 -0.1284,2.4096 0.2338,0.5782 0.5396,1.1157 0.8299,1.6613 -0.1665,0.0852 -0.3367,0.1637 -0.5145,0.2285 -0.6954,0.2534 -1.422,0.3726 -2.1476,0.5023 -0.1225,0.0219 -0.0755,0.1856 0.0269,0.1985 0.8458,0.1066 1.955,-0.0491 2.8775,-0.4595 0.171,0.3455 0.3266,0.6994 0.4449,1.0741 0.1474,0.467 0.3013,1.0029 0.3814,1.5463 -0.779,-0.0895 -1.5573,-0.0491 -2.2179,0.4247 -0.5327,0.3821 -0.9721,1.001 -0.901,1.6839 0.139,1.3339 1.8038,1.4952 2.7043,0.82 0.7461,-0.5593 0.9426,-1.4551 0.8906,-2.3712 0.2085,0.0336 0.4104,0.0704 0.5995,0.1031 1.9122,0.3303 4.0783,-0.0742 5.3286,-1.6975 z m -6.7073,3.16 c -0.288,0.4636 -0.8158,0.7489 -1.3644,0.7337 -0.7258,-0.0201 -1.1904,-0.6616 -0.8719,-1.3566 0.4862,-1.0608 1.5674,-1.1259 2.5896,-1.0031 0.0288,0.5791 -0.055,1.1459 -0.3533,1.626 z m 8.5331,-6.2493 c 0.2569,0.5419 0.4695,1.1522 0.8324,1.6297 0.1217,0.1601 0.3905,0.075 0.3386,-0.1427 -0.2566,-1.0757 -0.9567,-2.1492 -1.4307,-3.149 -0.5184,-1.0935 -0.989,-2.2516 -1.6568,-3.264 -0.084,-0.1273 -0.306,-0.0507 -0.2565,0.1082 0.3407,1.0929 0.8984,2.1291 1.3874,3.1609 0.2618,0.5523 0.5237,1.1046 0.7856,1.6569 z m 2.1204,-4.0813 c 0.2257,0.9791 0.7129,1.8998 1.4568,2.5706 1.0455,0.943 2.6283,1.3712 3.9652,0.8334 1.3057,-0.5252 2.1326,-1.9577 1.9643,-3.3523 -0.1678,-1.3911 -1.3351,-2.5583 -2.715,-2.763 -1.6993,-0.2521 -3.2532,0.8724 -4.4105,2.0435 -0.0814,-0.3495 -0.1452,-0.7026 -0.1959,-1.0512 -0.017,-0.1171 -0.1868,-0.0776 -0.1948,0.0264 -0.0346,0.4511 -0.0116,0.9124 0.0652,1.3661 -0.0071,0.0077 -0.0143,0.0154 -0.0214,0.023 -0.1119,0.1215 -0.0329,0.2701 0.0861,0.3035 z m 4.8157,-2.1975 c 1.744,0.4079 2.6027,2.3789 1.7703,3.9403 -0.8458,1.5866 -2.8785,1.7584 -4.2977,0.8603 -1.0312,-0.6525 -1.5867,-1.6929 -1.9102,-2.8159 1.235,-1.0514 2.698,-2.3915 4.4376,-1.9847 z m -45.1116004,11.6834 c -0.0628,-0.0598 -0.156,0.0331 -0.0953,0.0952 2.4017,2.4577 4.126,5.4789 5.3494,8.6693 0.0658,0.1717 0.3363,0.1061 0.2815,-0.0776 -1.0063,-3.3688 -3.0081,-6.2812 -5.5356,-8.6869 z m 0.6826,6.0702 c -0.0068,-0.146 -0.2319,-0.1476 -0.2283,0 0.0201,0.8286 0.3047,1.5856 0.8513,2.21 0.1071,0.1224 0.2795,-0.0548 0.1773,-0.1773 -0.4849,-0.5813 -0.7652,-1.2753 -0.8003,-2.0327 z m 71.5615004,-21.9407 c -1.6415,-1.2141 -3.3581,-2.3252 -5.0656,-3.444 -0.1612,-0.1057 -0.3015,0.1463 -0.1492,0.2553 1.6605,1.189 3.317,2.3899 5.0429,3.4828 0.1892,0.1198 0.344,-0.1667 0.1719,-0.2941 z"
     id="path5"
     inkscape:connector-curvature="0"
     style="fill:#045d99" /></svg>